<svg width="59" height="50" viewBox="0 0 59 50" fill="none" xmlns="http://www.w3.org/2000/svg">
<rect width="59" height="50" rx="15" fill="#FAFAFA"/>
<rect x="0.5" y="0.5" width="58" height="49" rx="14.5" stroke="black" stroke-opacity="0.2"/>
<rect x="0.5" y="0.5" width="58" height="49" rx="14.5" stroke="black" stroke-opacity="0.2"/>
<path fill-rule="evenodd" clip-rule="evenodd" d="M29.5 14.775C26.3382 14.775 23.775 17.3382 23.775 20.5C23.775 23.6618 26.3382 26.225 29.5 26.225C32.6618 26.225 35.225 23.6618 35.225 20.5C35.225 17.3382 32.6618 14.775 29.5 14.775ZM24.725 20.5C24.725 17.8628 26.8628 15.725 29.5 15.725C32.1372 15.725 34.275 17.8628 34.275 20.5C34.275 23.1371 32.1372 25.275 29.5 25.275C26.8628 25.275 24.725 23.1371 24.725 20.5ZM21.6417 35.6666C21.6417 32.7466 22.4112 30.7206 23.7292 29.4216C25.0487 28.1213 26.9934 27.475 29.4999 27.475C32.0065 27.475 33.9512 28.1213 35.2707 29.4216C36.5888 30.7206 37.3583 32.7466 37.3583 35.6666C37.3583 35.9289 37.5709 36.1416 37.8333 36.1416C38.0956 36.1416 38.3083 35.9289 38.3083 35.6666C38.3083 32.5866 37.4945 30.2793 35.9376 28.745C34.382 27.212 32.16 26.525 29.4999 26.525C26.8398 26.525 24.6179 27.212 23.0624 28.745C21.5055 30.2793 20.6917 32.5866 20.6917 35.6666C20.6917 35.9289 20.9044 36.1416 21.1667 36.1416C21.429 36.1416 21.6417 35.9289 21.6417 35.6666Z" fill="black"/>
<rect width="59" height="50" rx="15" fill="#FAFAFA"/>
<rect x="0.5" y="0.5" width="58" height="49" rx="14.5" stroke="black" stroke-opacity="0.2"/>
<rect x="0.5" y="0.5" width="58" height="49" rx="14.5" stroke="black" stroke-opacity="0.2"/>
<path fill-rule="evenodd" clip-rule="evenodd" d="M29.5 14.775C26.3382 14.775 23.775 17.3382 23.775 20.5C23.775 23.6618 26.3382 26.225 29.5 26.225C32.6618 26.225 35.225 23.6618 35.225 20.5C35.225 17.3382 32.6618 14.775 29.5 14.775ZM24.725 20.5C24.725 17.8628 26.8628 15.725 29.5 15.725C32.1372 15.725 34.275 17.8628 34.275 20.5C34.275 23.1371 32.1372 25.275 29.5 25.275C26.8628 25.275 24.725 23.1371 24.725 20.5ZM21.6417 35.6666C21.6417 32.7466 22.4112 30.7206 23.7292 29.4216C25.0487 28.1213 26.9934 27.475 29.4999 27.475C32.0065 27.475 33.9512 28.1213 35.2707 29.4216C36.5888 30.7206 37.3583 32.7466 37.3583 35.6666C37.3583 35.9289 37.5709 36.1416 37.8333 36.1416C38.0956 36.1416 38.3083 35.9289 38.3083 35.6666C38.3083 32.5866 37.4945 30.2793 35.9376 28.745C34.382 27.212 32.16 26.525 29.4999 26.525C26.8398 26.525 24.6179 27.212 23.0624 28.745C21.5055 30.2793 20.6917 32.5866 20.6917 35.6666C20.6917 35.9289 20.9044 36.1416 21.1667 36.1416C21.429 36.1416 21.6417 35.9289 21.6417 35.6666Z" fill="black"/>
</svg>
